<?xml version="1.0" encoding="UTF-8" standalone="no"?>
<!-- Created with Inkscape (http://www.inkscape.org/) -->

<svg
   xmlns:dc="http://purl.org/dc/elements/1.1/"
   xmlns:cc="http://creativecommons.org/ns#"
   xmlns:rdf="http://www.w3.org/1999/02/22-rdf-syntax-ns#"
   xmlns:svg="http://www.w3.org/2000/svg"
   xmlns="http://www.w3.org/2000/svg"
   xmlns:sodipodi="http://sodipodi.sourceforge.net/DTD/sodipodi-0.dtd"
   xmlns:inkscape="http://www.inkscape.org/namespaces/inkscape"
   width="148.68002"
   height="50.620499"
   viewBox="0 0 148.68001 50.620499"
   id="svg17672"
   version="1.1"
   inkscape:version="0.91 r13725"
   sodipodi:docname="rover.svg">
  <defs
     id="defs17674">
    <clipPath
       id="clipPath19424"
       clipPathUnits="userSpaceOnUse">
      <path
         inkscape:connector-curvature="0"
         id="path19426"
         d="m 35.958,716.184 138.085,0 0,40.096 -138.085,0 0,-40.096 z" />
    </clipPath>
  </defs>
  <sodipodi:namedview
     id="base"
     pagecolor="#ffffff"
     bordercolor="#666666"
     borderopacity="1.0"
     inkscape:pageopacity="0.0"
     inkscape:pageshadow="2"
     inkscape:zoom="3.4807692"
     inkscape:cx="94.055531"
     inkscape:cy="-20.112703"
     inkscape:document-units="px"
     inkscape:current-layer="layer1"
     showgrid="false"
     fit-margin-top="0"
     fit-margin-left="0"
     fit-margin-right="0"
     fit-margin-bottom="0"
     units="px"
     inkscape:window-width="1280"
     inkscape:window-height="744"
     inkscape:window-x="-4"
     inkscape:window-y="-4"
     inkscape:window-maximized="1" />
  <metadata
     id="metadata17677">
    <rdf:RDF>
      <cc:Work
         rdf:about="">
        <dc:format>image/svg+xml</dc:format>
        <dc:type
           rdf:resource="http://purl.org/dc/dcmitype/StillImage" />
        <dc:title></dc:title>
      </cc:Work>
    </rdf:RDF>
  </metadata>
  <g
     inkscape:label="Layer 1"
     inkscape:groupmode="layer"
     id="layer1"
     transform="translate(-307.12123,-495.77566)">
    <g
       id="g20307"
       transform="translate(0.24999054,-0.24999991)">
      <g
         style="fill:#77c045;fill-opacity:1"
         transform="matrix(1.25,0,0,-1.25,383.94836,503.00612)"
         id="g19444">
        <path
           inkscape:connector-curvature="0"
           id="path19446"
           style="fill:#77c045;fill-opacity:1;fill-rule:nonzero;stroke:none"
           d="m 0,0 c -5.853,-0.399 -8.947,-10.912 -9.258,-15.152 -0.233,-3.203 0.699,-6.061 2.561,-7.875 1.338,-1.304 3.052,-1.933 4.826,-1.789 1.813,0.151 4.093,2.04 5.81,4.813 2.037,3.292 3.129,7.5 3.071,11.899 C 6.925,-1.713 2.247,0.169 0,0 m 2.611,-8.593 c -0.195,-4.941 -1.353,-7.855 -2.289,-9.44 -1.06,-1.79 -2.139,-2.434 -2.497,-2.463 -0.324,-0.027 -0.845,0.498 -0.866,2.025 -0.084,6.344 3.201,13.051 5.089,13.148 0.035,0.002 0.07,-10e-4 0.126,-0.055 0.127,-0.125 0.536,-0.727 0.437,-3.215" />
      </g>
      <g
         style="fill:#77c045;fill-opacity:1"
         transform="matrix(1.25,0,0,-1.25,409.30911,505.35812)"
         id="g19448">
        <path
           inkscape:connector-curvature="0"
           id="path19450"
           style="fill:#77c045;fill-opacity:1;fill-rule:nonzero;stroke:none"
           d="m 0,0 c -1.349,0.047 -1.597,-1.738 -1.559,-4.624 0.033,-2.528 -0.613,-5.654 -1.728,-8.378 -1.166,-2.848 -2.291,-3.947 -2.751,-3.987 -0.136,0.125 -0.448,0.826 -0.474,2.839 -0.038,2.91 1.116,5.804 1.96,7.908 0.555,1.383 0.993,2.473 0.983,3.242 -0.027,2.029 -2.869,5.206 -4.283,5.195 -1.172,-0.003 -2.256,-1.955 -3.222,-5.799 -0.854,-3.402 -1.339,-7.329 -1.298,-10.493 0.046,-3.447 1.324,-5.414 2.388,-6.469 1.368,-1.352 2.984,-1.832 4.041,-1.835 3.614,0.024 8.838,11.582 8.756,17.752 C 2.781,-2.151 1.518,-0.054 0,0" />
      </g>
      <g
         style="fill:#77c045;fill-opacity:1"
         transform="matrix(1.25,0,0,-1.25,429.80273,523.20238)"
         id="g19452">
        <path
           inkscape:connector-curvature="0"
           id="path19454"
           style="fill:#77c045;fill-opacity:1;fill-rule:nonzero;stroke:none"
           d="m 0,0 c -0.776,0.09 -1.248,-0.651 -1.845,-1.592 -0.714,-1.124 -1.734,-2.627 -3.144,-2.897 -2.103,-0.403 -2.265,2.086 -2.285,3.591 -0.003,0.205 -0.002,0.408 0.001,0.607 1.965,0.296 4.318,1.251 6.217,2.555 2.616,1.796 4.037,3.998 4.007,6.282 -0.023,1.762 -2.324,6.425 -6.493,6.859 -2.186,0.227 -4.746,-1.36 -6.684,-4.134 -2.18,-3.122 -3.349,-7.288 -3.292,-11.671 0.065,-4.909 4.411,-8.146 7.496,-8.421 3.497,-0.285 7.277,3.273 7.228,6.933 C 1.189,-0.6 0.572,-0.067 0,0 m -2.222,10.97 c 0.891,-0.048 1.604,-1.597 1.612,-2.237 0.03,-2.208 -3.3,-4.806 -6.22,-5.062 1.164,4.311 3.62,7.215 4.608,7.299" />
      </g>
      <g
         style="fill:#77c045;fill-opacity:1"
         transform="matrix(1.25,0,0,-1.25,449.97798,508.41988)"
         id="g19456">
        <path
           inkscape:connector-curvature="0"
           id="path19458"
           style="fill:#77c045;fill-opacity:1;fill-rule:nonzero;stroke:none"
           d="m 0,0 c -2.388,0.484 -3.901,-0.131 -4.835,-0.914 -0.6,1.15 -1.944,2.854 -3.397,3.086 -0.751,0.121 -1.368,-0.681 -2.126,-2.771 -0.538,-1.481 -1.125,-3.598 -1.697,-6.122 -1.009,-4.448 -1.843,-9.647 -1.82,-11.337 0.016,-1.234 2.315,-3.643 4.636,-3.994 0.886,-0.133 1.031,1.023 1.458,4.458 0.323,2.594 0.766,6.146 1.7,9.404 0.53,1.849 1.732,3.614 3.149,4.178 -0.534,-0.485 -0.646,-1.444 -0.64,-1.896 0.028,-2.138 1.26,-3.284 3.38,-3.706 1.88,-0.37 4.497,0.754 4.45,4.22 C 4.215,-2.204 2.025,-0.408 0,0" />
      </g>
      <g
         style="fill:#77c045;fill-opacity:1"
         transform="matrix(1.25,0,0,-1.25,374.72398,535.88425)"
         id="g19460">
        <path
           inkscape:connector-curvature="0"
           id="path19462"
           style="fill:#77c045;fill-opacity:1;fill-rule:nonzero;stroke:none"
           d="m 0,0 c -1.122,-0.268 -2.631,-0.446 -4.123,0.596 -1.735,1.208 -3.034,3.642 -4.41,5.767 -1.4,2.219 -2.314,3.532 -2.314,3.532 2.955,1.345 5.352,3.465 6.774,4.919 0.496,0.478 0.96,0.989 1.381,1.536 0.027,0.033 0.044,0.054 0.043,0.054 1.521,1.992 2.487,4.435 2.449,7.354 -0.098,7.444 -5.642,8.7 -12.377,7.565 -6.734,-1.13 -11.463,-5.115 -11.554,-5.622 -0.089,-0.519 0.187,-3.305 1.307,-3.381 1.017,-0.063 3.459,2.487 3.848,2.56 -2.406,-6.001 -8.43,-24.651 -8.353,-29.689 0.049,-3.658 4.557,-3.867 5.619,-3.442 0.617,0.237 1.65,6.733 3.953,15.553 0.028,0.104 1.627,-1.033 1.729,-1.123 2.811,-2.469 3.129,-6.716 5.321,-9.652 1.546,-2.07 3.807,-2.927 6.355,-2.548 3.082,0.417 4.748,2.08 5.553,3.595 C 1.54,-1.789 1.565,-0.945 1.17,-0.437 0.935,-0.135 0.552,0.049 0,0 m -15.979,13.628 c 1.286,4.249 2.854,8.773 4.778,13.241 3.419,0.553 3.751,-1.445 3.782,-3.81 0.053,-3.994 -4.2,-8.726 -7.556,-9.361 -0.39,-0.072 -0.721,-0.085 -1.004,-0.07" />
      </g>
      <g
         style="fill:#77c045;fill-opacity:1"
         transform="matrix(1.25,0,0,-1.25,312.09711,511.73775)"
         id="g19464">
        <path
           inkscape:connector-curvature="0"
           id="path19466"
           style="fill:#77c045;fill-opacity:1;fill-rule:nonzero;stroke:none"
           d="M 0,0 C -0.548,1.917 1.137,3.104 2.044,3.354 4.403,4.018 6.587,1.296 7.096,0.073 7.481,-0.85 7.371,-1.827 6.797,-2.617 6.385,-3.185 5.762,-3.602 5.045,-3.796 4.312,-3.993 3.235,-3.735 2.302,-3.138 1.194,-2.428 0.377,-1.319 0,0" />
      </g>
      <g
         style="fill:#77c045;fill-opacity:1"
         transform="matrix(1.25,0,0,-1.25,308.03298,522.73812)"
         id="g19468">
        <path
           inkscape:connector-curvature="0"
           id="path19470"
           style="fill:#77c045;fill-opacity:1;fill-rule:nonzero;stroke:none"
           d="M 0,0 C -1.409,1.466 -0.464,3.237 0.231,3.846 2.031,5.44 5.293,3.959 6.336,3.092 7.122,2.437 7.491,1.524 7.354,0.578 7.255,-0.101 6.896,-0.736 6.345,-1.214 5.781,-1.702 4.691,-1.932 3.567,-1.8 2.233,-1.644 0.97,-1.009 0,0" />
      </g>
      <g
         style="fill:#77c045;fill-opacity:1"
         transform="matrix(1.25,0,0,-1.25,330.10648,505.37688)"
         id="g19472">
        <path
           inkscape:connector-curvature="0"
           id="path19474"
           style="fill:#77c045;fill-opacity:1;fill-rule:nonzero;stroke:none"
           d="m 0,0 c -0.702,1.912 -2.761,1.99 -3.638,1.705 -2.288,-0.729 -2.421,-4.21 -2.102,-5.516 0.242,-0.987 0.912,-1.749 1.843,-2.1 0.669,-0.252 1.417,-0.263 2.108,-0.035 0.706,0.234 1.417,1.039 1.81,2.051 C 0.488,-2.693 0.483,-1.315 0,0" />
      </g>
      <g
         style="fill:#77c045;fill-opacity:1"
         transform="matrix(1.25,0,0,-1.25,340.27286,509.18463)"
         id="g19476">
        <path
           inkscape:connector-curvature="0"
           id="path19478"
           style="fill:#77c045;fill-opacity:1;fill-rule:nonzero;stroke:none"
           d="m 0,0 c -0.201,1.985 -2.208,2.489 -3.144,2.398 -2.44,-0.224 -3.462,-3.544 -3.482,-4.867 -0.015,-0.999 0.449,-1.871 1.276,-2.403 0.594,-0.381 1.327,-0.548 2.066,-0.472 0.755,0.077 1.661,0.703 2.307,1.594 C -0.21,-2.692 0.138,-1.366 0,0" />
      </g>
      <g
         style="fill:#77c045;fill-opacity:1"
         transform="matrix(1.25,0,0,-1.25,332.04723,516.9895)"
         id="g19480">
        <path
           inkscape:connector-curvature="0"
           id="path19482"
           style="fill:#77c045;fill-opacity:1;fill-rule:nonzero;stroke:none"
           d="m 0,0 c -1.97,1.049 -4.684,2.333 -6.981,1.618 -2.086,-1.165 -2.896,-3.961 -3.393,-6.069 -0.72,-3.054 -0.908,-6.278 0.954,-9.017 0.827,-1.216 2.233,-2.089 3.775,-2.086 1.797,0.004 2.894,1.188 3.911,2.451 0.339,0.421 0.751,0.7 1.205,0.895 0.454,0.195 0.946,0.303 1.5,0.265 1.66,-0.114 3.311,-0.119 4.512,1.163 1.03,1.1 1.288,2.688 0.894,4.089 C 5.488,-3.535 2.855,-1.521 0,0" />
      </g>
    </g>
  </g>
</svg>
